<svg width="132" height="83" viewBox="0 0 132 83" fill="none" xmlns="http://www.w3.org/2000/svg">
<path d="M0 0.550415H7.66962L7.85092 34.6063H0.1813L0 0.550415Z" fill="white"/>
<path d="M46.3174 0.550415V34.5735H39.2247L23.1095 13.9166V37.0037H15.5345V0.550415H21.8785L38.0323 21.2073V0.550415H46.3174Z" fill="white"/>
<path d="M61.0885 6.90182V15.8936H77.0906V22.2122H61.0885V34.6063H53.4189V0.583251H78.4635V6.90182H61.0885Z" fill="white"/>
<path d="M99.3815 35.1896C95.9412 35.1896 92.8324 34.4281 90.0549 32.9052C87.309 31.3822 85.1469 29.2923 83.5688 26.6352C82.0223 23.9458 81.249 20.9323 81.249 17.5948C81.249 14.2573 82.0223 11.26 83.5688 8.60298C85.1469 5.91354 87.309 3.80734 90.0549 2.28441C92.8324 0.761469 95.9412 0 99.3815 0C102.822 0 105.915 0.761469 108.661 2.28441C111.407 3.80734 113.569 5.91354 115.147 8.60298C116.725 11.26 117.514 14.2573 117.514 17.5948C117.514 20.9323 116.725 23.9458 115.147 26.6352C113.569 29.2923 111.407 31.3822 108.661 32.9052C105.915 34.4281 102.822 35.1896 99.3815 35.1896ZM99.3815 28.4822C101.338 28.4822 103.106 28.0285 104.684 27.1213C106.262 26.1816 107.493 24.8855 108.377 23.2329C109.292 21.5804 109.75 19.701 109.75 17.5948C109.75 15.4886 109.292 13.6092 108.377 11.9567C107.493 10.3041 106.262 9.02422 104.684 8.11694C103.106 7.17725 101.338 6.70741 99.3815 6.70741C97.4247 6.70741 95.6572 7.17725 94.0791 8.11694C92.5009 9.02422 91.2542 10.3041 90.3389 11.9567C89.4552 13.6092 89.0133 15.4886 89.0133 17.5948C89.0133 19.701 89.4552 21.5804 90.3389 23.2329C91.2542 24.8855 92.5009 26.1816 94.0791 27.1213C95.6572 28.0285 97.4247 28.4822 99.3815 28.4822Z" fill="white"/>
<path d="M14.5028 33.9496C17.4381 33.9496 19.9789 34.4519 22.1251 35.4564C24.3029 36.4609 25.9757 37.8866 27.1435 39.7336C28.3113 41.5805 28.8952 43.7677 28.8952 46.2952C28.8952 48.7902 28.3113 50.9774 27.1435 52.8568C25.9757 54.7037 24.3029 56.1294 22.1251 57.1339C19.9789 58.106 17.4381 58.5921 14.5028 58.5921H7.8274V68.604H0.157776V33.9496H14.5028ZM14.0767 52.1763C16.3808 52.1763 18.1325 51.674 19.3318 50.6696C20.5312 49.6327 21.1309 48.1745 21.1309 46.2952C21.1309 44.3834 20.5312 42.9252 19.3318 41.9208C18.1325 40.8839 16.3808 40.3654 14.0767 40.3654H7.8274V52.1763H14.0767Z" fill="#42C842"/>
<path d="M39.216 34.5712H46.3175V62.1402H67.0539V68.556H39.216V34.5712Z" fill="#42C842"/>
<path d="M84.4633 68.556C79.729 68.556 76.0362 67.2113 73.385 64.5218C70.7653 61.8324 69.4555 57.9926 69.4555 53.0026V22.2065H77.1251V52.7109C77.1251 58.8027 79.587 61.8486 84.5107 61.8486C86.9094 61.8486 88.74 61.1195 90.0025 59.6614C91.265 58.1708 91.8962 55.854 91.8962 52.7109V33.7656C94.6102 34.7165 96.2455 35.0896 99.4119 35.174L99.4712 53.0026C99.4712 57.9926 98.1455 61.8324 95.4943 64.5218C92.8746 67.2113 89.1976 68.556 84.4633 68.556Z" fill="#42C842"/>
<path d="M117.939 68.556C115.319 68.556 112.779 68.1995 110.317 67.4867C107.887 66.7414 105.93 65.7855 104.446 64.619L107.05 58.6893C108.47 59.7586 110.159 60.6173 112.116 61.2653C114.073 61.9134 116.03 62.2374 117.986 62.2374C120.164 62.2374 121.774 61.9134 122.815 61.2653C123.857 60.5849 124.378 59.6938 124.378 58.5921C124.378 57.782 124.062 57.1177 123.431 56.5993C122.831 56.0484 122.042 55.611 121.064 55.287C120.117 54.9629 118.823 54.6065 117.182 54.2177C114.657 53.602 112.589 52.9864 110.98 52.3707C109.37 51.755 107.981 50.7668 106.813 49.4058C105.677 48.0449 105.109 46.2303 105.109 43.9621C105.109 41.9856 105.63 40.2034 106.671 38.6157C107.713 36.9955 109.275 35.7156 111.358 34.7759C113.473 33.8362 116.045 33.3664 119.075 33.3664C121.19 33.3664 123.257 33.6256 125.277 34.144C127.297 34.6625 129.065 35.4078 130.58 36.3799L128.213 42.3582C125.151 40.576 122.09 39.685 119.028 39.685C116.882 39.685 115.288 40.0414 114.246 40.7543C113.236 41.4671 112.731 42.4068 112.731 43.5733C112.731 44.7398 113.315 45.6147 114.483 46.1979C115.682 46.7488 117.497 47.2996 119.928 47.8505C122.453 48.4662 124.52 49.0818 126.13 49.6975C127.739 50.3131 129.112 51.2852 130.248 52.6137C131.416 53.9422 132 55.7406 132 58.0088C132 59.953 131.464 61.7352 130.39 63.3553C129.349 64.9431 127.771 66.2068 125.656 67.1465C123.541 68.0861 120.969 68.556 117.939 68.556Z" fill="#42C842"/>
<path d="M3.15318 74.842C4.22831 74.842 5.07076 75.0882 5.68054 75.5805C6.29031 76.0728 6.5952 76.7498 6.5952 77.6113C6.5952 78.4729 6.29031 79.1499 5.68054 79.6422C5.07076 80.1268 4.22831 80.3691 3.15318 80.3691H0.890592V82.9192H0V74.842H3.15318ZM3.12911 79.6191C3.96354 79.6191 4.60139 79.446 5.04268 79.0999C5.48396 78.746 5.70461 78.2498 5.70461 77.6113C5.70461 76.9575 5.48396 76.4575 5.04268 76.1113C4.60139 75.7574 3.96354 75.5805 3.12911 75.5805H0.890592V79.6191H3.12911Z" fill="white"/>
<path d="M13.7231 80.1384H8.42772C8.47586 80.7691 8.72859 81.2807 9.18593 81.673C9.64326 82.0577 10.2209 82.25 10.919 82.25C11.3121 82.25 11.6732 82.1846 12.0021 82.0538C12.3311 81.9153 12.6159 81.7153 12.8566 81.4538L13.338 81.9846C13.0572 82.3077 12.7042 82.5538 12.2789 82.7231C11.8617 82.8923 11.4004 82.9769 10.8949 82.9769C10.245 82.9769 9.66733 82.8461 9.16186 82.5846C8.66441 82.3154 8.27528 81.9461 7.99446 81.4769C7.71364 81.0076 7.57323 80.4768 7.57323 79.8845C7.57323 79.2922 7.70562 78.7614 7.97039 78.2921C8.24318 77.8229 8.61226 77.4575 9.07761 77.1959C9.55099 76.9344 10.0805 76.8036 10.6662 76.8036C11.2519 76.8036 11.7775 76.9344 12.2428 77.1959C12.7082 77.4575 13.0732 77.8229 13.338 78.2921C13.6028 78.7537 13.7352 79.2845 13.7352 79.8845L13.7231 80.1384ZM10.6662 77.5075C10.0565 77.5075 9.54297 77.696 9.12575 78.0729C8.71656 78.4421 8.48388 78.9268 8.42772 79.5268H12.9168C12.8606 78.9268 12.6239 78.4421 12.2067 78.0729C11.7975 77.696 11.284 77.5075 10.6662 77.5075Z" fill="white"/>
<path d="M17.9253 80.2191H16.4811V82.9192H15.6266V76.8498H16.4811V79.5153H17.9374L20.1639 76.8498H21.0905L18.5993 79.7922L21.2711 82.9192H20.2601L17.9253 80.2191Z" fill="white"/>
<path d="M27.7947 76.8498V82.9192H26.9402V77.5767H23.9074L23.8232 79.0768C23.759 80.3384 23.6065 81.3076 23.3658 81.9846C23.1251 82.6615 22.6959 83 22.0781 83C21.9096 83 21.705 82.9692 21.4643 82.9077L21.5245 82.2038C21.6689 82.2346 21.7692 82.25 21.8253 82.25C22.1543 82.25 22.403 82.1038 22.5715 81.8115C22.74 81.5192 22.8523 81.1576 22.9085 80.7268C22.9647 80.2961 23.0128 79.7268 23.0529 79.0191L23.1612 76.8498H27.7947Z" fill="white"/>
<path d="M32.4022 76.8036C33.2286 76.8036 33.8624 77.0036 34.3037 77.4036C34.745 77.796 34.9656 78.3806 34.9656 79.1576V82.9192H34.1472V81.973C33.9547 82.2884 33.6699 82.5346 33.2928 82.7115C32.9237 82.8885 32.4824 82.9769 31.9689 82.9769C31.2628 82.9769 30.7012 82.8154 30.284 82.4923C29.8668 82.1692 29.6582 81.7423 29.6582 81.2115C29.6582 80.6961 29.8507 80.2807 30.2359 79.9653C30.629 79.6499 31.2508 79.4922 32.1013 79.4922H34.1111V79.1229C34.1111 78.5998 33.9587 78.2037 33.6538 77.9344C33.3489 77.6575 32.9036 77.519 32.3179 77.519C31.9167 77.519 31.5316 77.5844 31.1626 77.7152C30.7935 77.8383 30.4766 78.0114 30.2118 78.2344L29.8267 77.6229C30.1476 77.3613 30.5327 77.1613 30.982 77.0229C31.4313 76.8767 31.9047 76.8036 32.4022 76.8036ZM32.1013 82.3307C32.5827 82.3307 32.9959 82.2269 33.3409 82.0192C33.6859 81.8038 33.9426 81.4961 34.1111 81.0961V80.1037H32.1254C31.0422 80.1037 30.5006 80.4653 30.5006 81.1884C30.5006 81.5423 30.641 81.823 30.9219 82.0307C31.2027 82.2307 31.5958 82.3307 32.1013 82.3307Z" fill="white"/>
<path d="M44.3169 76.8498V82.9192H43.5347V78.1191L40.9712 82.1807H40.5861L38.0226 78.1075V82.9192H37.2403V76.8498H38.1069L40.7907 81.223L43.5226 76.8498H44.3169Z" fill="white"/>
<path d="M46.7485 76.8498H47.603V79.5383H51.5866V76.8498H52.4411V82.9192H51.5866V80.2422H47.603V82.9192H46.7485V76.8498Z" fill="white"/>
<path d="M57.4814 82.9769C56.8716 82.9769 56.322 82.8461 55.8326 82.5846C55.3432 82.3154 54.958 81.9461 54.6772 81.4769C54.3964 81.0076 54.256 80.4768 54.256 79.8845C54.256 79.2922 54.3964 78.7614 54.6772 78.2921C54.958 77.8229 55.3432 77.4575 55.8326 77.1959C56.322 76.9344 56.8716 76.8036 57.4814 76.8036C58.0912 76.8036 58.6408 76.9344 59.1302 77.1959C59.6196 77.4575 60.0007 77.8229 60.2735 78.2921C60.5543 78.7614 60.6947 79.2922 60.6947 79.8845C60.6947 80.4768 60.5543 81.0076 60.2735 81.4769C60.0007 81.9461 59.6196 82.3154 59.1302 82.5846C58.6408 82.8461 58.0912 82.9769 57.4814 82.9769ZM57.4814 82.25C57.9307 82.25 58.3319 82.1538 58.6849 81.9615C59.0459 81.7615 59.3268 81.4807 59.5273 81.1192C59.7279 80.7576 59.8282 80.3461 59.8282 79.8845C59.8282 79.4229 59.7279 79.0114 59.5273 78.6498C59.3268 78.2883 59.0459 78.0114 58.6849 77.819C58.3319 77.619 57.9307 77.519 57.4814 77.519C57.0321 77.519 56.6269 77.619 56.2658 77.819C55.9128 78.0114 55.632 78.2883 55.4234 78.6498C55.2228 79.0114 55.1225 79.4229 55.1225 79.8845C55.1225 80.3461 55.2228 80.7576 55.4234 81.1192C55.632 81.4807 55.9128 81.7615 56.2658 81.9615C56.6269 82.1538 57.0321 82.25 57.4814 82.25Z" fill="white"/>
<path d="M68.0571 80.1384H62.7617C62.8098 80.7691 63.0625 81.2807 63.5199 81.673C63.9772 82.0577 64.5549 82.25 65.2529 82.25C65.6461 82.25 66.0071 82.1846 66.3361 82.0538C66.665 81.9153 66.9499 81.7153 67.1906 81.4538L67.672 81.9846C67.3911 82.3077 67.0381 82.5538 66.6129 82.7231C66.1957 82.8923 65.7343 82.9769 65.2288 82.9769C64.5789 82.9769 64.0013 82.8461 63.4958 82.5846C62.9983 82.3154 62.6092 81.9461 62.3284 81.4769C62.0476 81.0076 61.9072 80.4768 61.9072 79.8845C61.9072 79.2922 62.0396 78.7614 62.3043 78.2921C62.5771 77.8229 62.9462 77.4575 63.4116 77.1959C63.8849 76.9344 64.4145 76.8036 65.0002 76.8036C65.5859 76.8036 66.1114 76.9344 66.5768 77.1959C67.0421 77.4575 67.4072 77.8229 67.672 78.2921C67.9367 78.7537 68.0691 79.2845 68.0691 79.8845L68.0571 80.1384ZM65.0002 77.5075C64.3904 77.5075 63.8769 77.696 63.4597 78.0729C63.0505 78.4421 62.8178 78.9268 62.7617 79.5268H67.2507C67.1946 78.9268 66.9579 78.4421 66.5407 78.0729C66.1315 77.696 65.618 77.5075 65.0002 77.5075Z" fill="white"/>
<path d="M75.2887 76.8036C76.1151 76.8036 76.749 77.0036 77.1903 77.4036C77.6315 77.796 77.8522 78.3806 77.8522 79.1576V82.9192H77.0338V81.973C76.8412 82.2884 76.5564 82.5346 76.1793 82.7115C75.8102 82.8885 75.3689 82.9769 74.8555 82.9769C74.1494 82.9769 73.5878 82.8154 73.1706 82.4923C72.7533 82.1692 72.5447 81.7423 72.5447 81.2115C72.5447 80.6961 72.7373 80.2807 73.1224 79.9653C73.5156 79.6499 74.1374 79.4922 74.9878 79.4922H76.9977V79.1229C76.9977 78.5998 76.8453 78.2037 76.5404 77.9344C76.2355 77.6575 75.7902 77.519 75.2045 77.519C74.8033 77.519 74.4182 77.5844 74.0491 77.7152C73.68 77.8383 73.3631 78.0114 73.0983 78.2344L72.7132 77.6229C73.0342 77.3613 73.4193 77.1613 73.8686 77.0229C74.3179 76.8767 74.7913 76.8036 75.2887 76.8036ZM74.9878 82.3307C75.4692 82.3307 75.8824 82.2269 76.2274 82.0192C76.5725 81.8038 76.8292 81.4961 76.9977 81.0961V80.1037H75.0119C73.9288 80.1037 73.3872 80.4653 73.3872 81.1884C73.3872 81.5423 73.5276 81.823 73.8084 82.0307C74.0892 82.2307 74.4824 82.3307 74.9878 82.3307Z" fill="white"/>
<path d="M84.6039 77.5767H80.9814V82.9192H80.1269V76.8498H84.6039V77.5767Z" fill="white"/>
<path d="M91.0811 80.1384H85.7857C85.8338 80.7691 86.0866 81.2807 86.5439 81.673C87.0013 82.0577 87.5789 82.25 88.277 82.25C88.6701 82.25 89.0312 82.1846 89.3601 82.0538C89.6891 81.9153 89.9739 81.7153 90.2146 81.4538L90.696 81.9846C90.4152 82.3077 90.0622 82.5538 89.6369 82.7231C89.2197 82.8923 88.7584 82.9769 88.2529 82.9769C87.603 82.9769 87.0253 82.8461 86.5199 82.5846C86.0224 82.3154 85.6333 81.9461 85.3524 81.4769C85.0716 81.0076 84.9312 80.4768 84.9312 79.8845C84.9312 79.2922 85.0636 78.7614 85.3284 78.2921C85.6012 77.8229 85.9702 77.4575 86.4356 77.1959C86.909 76.9344 87.4385 76.8036 88.0242 76.8036C88.6099 76.8036 89.1355 76.9344 89.6008 77.1959C90.0662 77.4575 90.4312 77.8229 90.696 78.2921C90.9608 78.7537 91.0932 79.2845 91.0932 79.8845L91.0811 80.1384ZM88.0242 77.5075C87.4145 77.5075 86.901 77.696 86.4837 78.0729C86.0746 78.4421 85.8419 78.9268 85.7857 79.5268H90.2748C90.2186 78.9268 89.9819 78.4421 89.5647 78.0729C89.1555 77.696 88.642 77.5075 88.0242 77.5075Z" fill="white"/>
<path d="M92.9846 76.8498H93.8391V79.5383H97.8227V76.8498H98.6772V82.9192H97.8227V80.2422H93.8391V82.9192H92.9846V76.8498Z" fill="white"/>
<path d="M105.559 77.5767H103.164V82.9192H102.309V77.5767H99.9145V76.8498H105.559V77.5767Z" fill="white"/>
<path d="M109.148 82.9769C108.522 82.9769 107.961 82.8461 107.463 82.5846C106.974 82.3231 106.589 81.9577 106.308 81.4884C106.027 81.0115 105.887 80.4768 105.887 79.8845C105.887 79.2922 106.027 78.7614 106.308 78.2921C106.589 77.8229 106.974 77.4575 107.463 77.1959C107.961 76.9344 108.522 76.8036 109.148 76.8036C109.694 76.8036 110.179 76.9075 110.604 77.1152C111.038 77.3152 111.379 77.6113 111.627 78.0037L110.99 78.4191C110.781 78.1191 110.516 77.896 110.195 77.7498C109.874 77.596 109.525 77.519 109.148 77.519C108.691 77.519 108.278 77.619 107.909 77.819C107.548 78.0114 107.263 78.2883 107.054 78.6498C106.854 79.0114 106.753 79.4229 106.753 79.8845C106.753 80.3537 106.854 80.7691 107.054 81.1307C107.263 81.4846 107.548 81.7615 107.909 81.9615C108.278 82.1538 108.691 82.25 109.148 82.25C109.525 82.25 109.874 82.1769 110.195 82.0307C110.516 81.8846 110.781 81.6615 110.99 81.3615L111.627 81.7769C111.379 82.1692 111.038 82.4692 110.604 82.6769C110.171 82.8769 109.686 82.9769 109.148 82.9769Z" fill="white"/>
<path d="M117.617 77.5767H115.222V82.9192H114.368V77.5767H111.973V76.8498H117.617V77.5767Z" fill="white"/>
<path d="M122.885 79.7807C123.743 79.973 124.172 80.4691 124.172 81.2692C124.172 81.8 123.968 82.2077 123.559 82.4923C123.149 82.7769 122.54 82.9192 121.729 82.9192H118.853V76.8498H121.645C122.367 76.8498 122.933 76.9844 123.342 77.2536C123.751 77.5229 123.956 77.9075 123.956 78.4075C123.956 78.7383 123.859 79.0229 123.667 79.2614C123.482 79.4922 123.222 79.6653 122.885 79.7807ZM119.683 79.5499H121.585C122.074 79.5499 122.447 79.4614 122.704 79.2845C122.969 79.1076 123.101 78.8498 123.101 78.5114C123.101 78.1729 122.969 77.919 122.704 77.7498C122.447 77.5806 122.074 77.496 121.585 77.496H119.683V79.5499ZM121.693 82.2731C122.239 82.2731 122.648 82.1884 122.921 82.0192C123.194 81.85 123.33 81.5846 123.33 81.223C123.33 80.8615 123.206 80.5961 122.957 80.4268C122.708 80.2499 122.315 80.1614 121.777 80.1614H119.683V82.2731H121.693Z" fill="white"/>
<path d="M128.787 82.9769C128.177 82.9769 127.627 82.8461 127.138 82.5846C126.648 82.3154 126.263 81.9461 125.982 81.4769C125.702 81.0076 125.561 80.4768 125.561 79.8845C125.561 79.2922 125.702 78.7614 125.982 78.2921C126.263 77.8229 126.648 77.4575 127.138 77.1959C127.627 76.9344 128.177 76.8036 128.787 76.8036C129.396 76.8036 129.946 76.9344 130.435 77.1959C130.925 77.4575 131.306 77.8229 131.579 78.2921C131.86 78.7614 132 79.2922 132 79.8845C132 80.4768 131.86 81.0076 131.579 81.4769C131.306 81.9461 130.925 82.3154 130.435 82.5846C129.946 82.8461 129.396 82.9769 128.787 82.9769ZM128.787 82.25C129.236 82.25 129.637 82.1538 129.99 81.9615C130.351 81.7615 130.632 81.4807 130.833 81.1192C131.033 80.7576 131.133 80.3461 131.133 79.8845C131.133 79.4229 131.033 79.0114 130.833 78.6498C130.632 78.2883 130.351 78.0114 129.99 77.819C129.637 77.619 129.236 77.519 128.787 77.519C128.337 77.519 127.932 77.619 127.571 77.819C127.218 78.0114 126.937 78.2883 126.729 78.6498C126.528 79.0114 126.428 79.4229 126.428 79.8845C126.428 80.3461 126.528 80.7576 126.729 81.1192C126.937 81.4807 127.218 81.7615 127.571 81.9615C127.932 82.1538 128.337 82.25 128.787 82.25Z" fill="white"/>
</svg>
